<?xml version="1.0" encoding="UTF-8" standalone="no"?>
<!-- Created with Inkscape (http://www.inkscape.org/) -->

<svg
   width="119.886mm"
   height="119.886mm"
   viewBox="0 0 119.886 119.886"
   version="1.1"
   id="svg5"
   xmlns="http://www.w3.org/2000/svg"
   xmlns:svg="http://www.w3.org/2000/svg">
  <defs
     id="defs2" />
  <path
     style="fill:#fef9db;fill-opacity:1;stroke-width:0.117076"
     d="m 64.391894,82.550692 c 3.42527,-1.155456 5.873165,-3.894247 6.86472,-7.680483 0.269544,-1.029257 0.307183,-1.404245 0.311409,-3.102519 0.0044,-1.727384 -0.02792,-2.054033 -0.304404,-3.087509 -0.339666,-1.269596 -0.96809,-2.647571 -1.741031,-3.817637 -0.582051,-0.881096 -2.743929,-3.593756 -8.058561,-10.111673 -2.092208,-2.565901 -4.216376,-5.173771 -4.72037,-5.795269 -1.374422,-1.694854 -1.538406,-2.059073 -1.540512,-3.421664 -0.0018,-1.044346 0.02243,-1.160046 0.352007,-1.693574 0.412527,-0.667808 1.166491,-1.281446 1.785856,-1.453455 0.284014,-0.0789 3.786729,-0.121339 10.044738,-0.121759 10.742621,-8.9e-4 10.228696,-0.0389 11.217836,0.831837 0.293846,0.258649 0.672027,0.759497 0.855294,1.132696 0.293492,0.597667 0.328533,0.793907 0.328533,1.839779 0,1.016096 -0.04009,1.255836 -0.303373,1.814684 -0.610861,1.296565 -1.73712,2.035952 -3.390843,2.226072 -0.543855,0.0625 -2.556188,0.114079 -4.471845,0.114559 l -3.483019,8.9e-4 v 4.324055 4.324045 l 4.302551,0.037 4.302552,0.037 0.664424,0.311469 c 1.669609,0.782687 2.672245,2.473901 2.672245,4.507484 0,1.953322 -0.755761,3.509157 -2.156325,4.439073 -0.575006,0.381789 -1.086798,0.529469 -3.346258,0.965577 l -0.409766,0.0791 -0.03075,4.201065 -0.03075,4.201075 2.138133,-0.0618 c 1.774989,-0.0513 2.330414,-0.112039 3.270212,-0.357689 4.975528,-1.300535 8.386456,-5.057732 9.288724,-10.231703 0.224779,-1.288966 0.222809,-3.769986 -0.004,-5.169081 -0.202949,-1.251395 -0.768187,-2.85094 -1.353035,-3.828876 -0.568311,-0.950277 -1.992911,-2.428882 -2.830276,-2.93755 l -0.713089,-0.433188 0.282252,-0.18401 c 2.274156,-1.482604 3.641551,-3.459357 4.338579,-6.271967 0.306709,-1.237626 0.423829,-3.933062 0.224859,-5.174918 -0.787303,-4.913883 -4.32801,-8.685069 -9.000648,-9.586546 -0.70613,-0.13623 -2.947156,-0.165299 -12.585691,-0.163209 -11.124549,0.002 -11.778734,0.0141 -12.742346,0.227159 -2.903796,0.642147 -5.371609,2.378271 -6.893115,4.849343 -2.333954,3.790556 -2.305121,9.181903 0.06874,12.85237 0.305664,0.472618 2.010349,2.67041 3.788179,4.883973 1.77783,2.213552 4.931151,6.138538 7.00738,8.722168 3.913113,4.869432 4.248088,5.372451 4.242185,6.370247 -0.0031,0.555528 -0.367073,1.359815 -0.719342,1.590364 -0.150279,0.0984 -0.489883,0.2134 -0.75468,0.255659 l -0.481446,0.0769 -1.396002,-1.680724 C 56.769034,68.374412 53.931098,64.852494 44.271657,52.771838 39.032999,46.220071 34.699717,40.859545 34.64214,40.859545 c -0.06109,0 -0.104685,7.655528 -0.104685,18.38095 v 18.380964 h 4.457322 4.45732 l -0.0377,-8.192161 c -0.03482,-7.565092 -0.02314,-8.17671 0.152513,-7.990441 0.104615,0.11094 3.050735,3.810576 6.546931,8.22142 3.496197,4.410845 6.96225,8.783639 7.702337,9.717326 0.740091,0.933676 1.716841,2.138562 2.170551,2.67751 l 0.824934,0.979897 1.233993,-0.0546 c 0.980687,-0.0434 1.462305,-0.1316 2.34622,-0.429778 z"
     id="path449" />
</svg>
